<?xml version="1.0" encoding="UTF-8"?>
<svg id="Layer_1" data-name="Layer 1" xmlns="http://www.w3.org/2000/svg" version="1.1" xmlns:xlink="http://www.w3.org/1999/xlink" viewBox="0 0 1280 792">
  <defs>
    <style>
      .cls-1 {
        fill: url(#linear-gradient);
      }

      .cls-1, .cls-2, .cls-3, .cls-4 {
        stroke-width: 0px;
      }

      .cls-2 {
        fill: #7ac7d2;
      }

      .cls-3 {
        fill: url(#linear-gradient-2);
      }

      .cls-4 {
        fill: #1860a8;
      }
    </style>
    <linearGradient id="linear-gradient" x1="223.87" y1="284.47" x2="483.53" y2="441.34" gradientUnits="userSpaceOnUse">
      <stop offset="0" stop-color="#1860a8"/>
      <stop offset="1" stop-color="#7ac7d2"/>
    </linearGradient>
    <linearGradient id="linear-gradient-2" x1="266.01" y1="232.5" x2="321.81" y2="275.73" gradientUnits="userSpaceOnUse">
      <stop offset="0" stop-color="#455fab"/>
      <stop offset="1" stop-color="#7ac7d2"/>
    </linearGradient>
  </defs>
  <g>
    <path class="cls-4" d="M610.29,288.65l-55.76-.26v-21.67h136.62v21.67l-56.02.26-.53,152.47h-24.84l.53-152.47Z"/>
    <path class="cls-4" d="M698.55,434.91c-10.75-5.9-19.38-14.14-25.9-24.71-6.52-10.57-9.78-22.46-9.78-35.67,0-14.44,3.21-26.95,9.65-37.52,6.43-10.57,15.02-18.63,25.76-24.18,10.74-5.55,22.46-8.32,35.14-8.32s23.29,2.56,33.43,7.66c10.13,5.11,18.41,12.6,24.84,22.46,6.43,9.87,10.17,21.67,11.23,35.41.35,3.35.35,6.78,0,10.31h-116.53c.7,8.1,3.39,15.42,8.06,21.93,4.67,6.52,10.48,11.58,17.44,15.19,6.96,3.61,14.05,5.51,21.27,5.68,8.63,0,16.78-1.98,24.44-5.95,7.66-3.96,13.61-9.64,17.84-17.04l19.03,9.78c-5.99,10.57-14.4,18.85-25.24,24.84-10.83,5.99-22.77,8.98-35.8,8.98s-24.14-2.95-34.88-8.85ZM779.41,365.54c-.88-8.1-3.57-15.24-8.06-21.4-4.49-6.17-10.09-10.92-16.78-14.27-6.7-3.34-13.74-5.02-21.14-5.02s-14.14,1.68-20.74,5.02c-6.61,3.35-12.11,8.1-16.52,14.27-4.41,6.17-7.05,13.3-7.93,21.4h91.17Z"/>
    <path class="cls-4" d="M822.74,307.14h24.84v37.52c3.17-10.92,9.64-19.73,19.42-26.42,9.78-6.69,20.48-10.04,32.11-10.04,4.93,0,9.51.62,13.74,1.85l-12.16,20.61c-2.64-.7-5.55-1.06-8.72-1.06-6.87,0-13.65,1.9-20.35,5.68-6.7,3.79-12.2,9.12-16.51,15.99-4.32,6.87-6.47,14.71-6.47,23.52v66.33h-25.9v-133.97Z"/>
    <path class="cls-4" d="M941.92,434.64c-10.22-6.08-18.28-14.4-24.18-24.97-5.9-10.57-8.85-22.2-8.85-34.88,0-14.27,2.86-26.73,8.59-37.39,5.72-10.66,13.56-18.8,23.52-24.44,9.95-5.64,21.18-8.46,33.69-8.46s24.31,3.26,34.88,9.78c10.57,6.52,17.97,15.24,22.2,26.16v-33.29h25.1v133.97h-24.84v-34.09c-4.05,10.93-11.32,19.78-21.8,26.56-10.48,6.78-21.89,10.17-34.22,10.17s-23.87-3.04-34.09-9.12ZM940.34,399.23c4.4,7.31,10.31,13.04,17.7,17.18,7.4,4.14,15.24,6.21,23.52,6.21s16.73-2.02,24.31-6.08c7.57-4.05,13.65-9.73,18.23-17.04,4.58-7.31,6.87-15.54,6.87-24.71,0-10.04-2.29-18.8-6.87-26.29-4.58-7.49-10.62-13.21-18.1-17.18-7.49-3.96-15.64-5.95-24.44-5.95s-16.82,1.89-24.05,5.68c-7.23,3.79-12.99,9.43-17.31,16.91-4.32,7.49-6.47,16.43-6.47,26.82,0,8.98,2.2,17.13,6.61,24.44Z"/>
  </g>
  <g>
    <path class="cls-2" d="M609.77,458.1h9.87l16.59,54.46,16.9-54.46h10.18l15.37,54.46,18.53-54.46h9.87l-23.72,67.19h-9.16l-16.19-55.58-17.61,55.58h-9.06l-21.58-67.19Z"/>
    <path class="cls-2" d="M714.82,522.89c-4.14-2.27-7.47-5.45-9.98-9.52-2.51-4.07-3.77-8.65-3.77-13.74,0-5.56,1.24-10.38,3.72-14.46,2.48-4.07,5.79-7.18,9.93-9.32,4.14-2.14,8.65-3.21,13.54-3.21s8.97.98,12.88,2.95c3.9,1.97,7.09,4.85,9.57,8.65,2.48,3.8,3.92,8.35,4.33,13.64.14,1.29.14,2.61,0,3.97h-44.89c.27,3.12,1.31,5.94,3.1,8.45,1.8,2.51,4.04,4.46,6.72,5.85,2.68,1.39,5.41,2.12,8.19,2.19,3.32,0,6.46-.76,9.42-2.29,2.95-1.53,5.24-3.72,6.87-6.57l7.33,3.77c-2.31,4.07-5.55,7.26-9.72,9.57-4.17,2.31-8.77,3.46-13.79,3.46s-9.3-1.14-13.44-3.41ZM745.98,496.17c-.34-3.12-1.37-5.87-3.11-8.25-1.73-2.38-3.89-4.21-6.46-5.5-2.58-1.29-5.29-1.93-8.14-1.93s-5.45.65-7.99,1.93c-2.55,1.29-4.67,3.12-6.36,5.5-1.7,2.38-2.72,5.13-3.05,8.25h35.12Z"/>
    <path class="cls-2" d="M762.67,458.1h9.57v67.19h-9.57v-67.19Z"/>
    <path class="cls-2" d="M779.77,458.1h9.57v67.19h-9.57v-67.19Z"/>
    <path class="cls-2" d="M814.79,522.38c-4.07-2.61-6.86-6.02-8.35-10.23v13.13h-9.57v-67.19h9.57v28.4c1.63-4.21,4.48-7.57,8.55-10.08,4.07-2.51,8.59-3.77,13.54-3.77s9.15,1.09,12.98,3.26c3.83,2.17,6.85,5.31,9.06,9.42,2.21,4.11,3.31,8.91,3.31,14.4,0,4.89-1.14,9.37-3.41,13.44-2.27,4.07-5.38,7.28-9.31,9.62-3.94,2.34-8.31,3.51-13.13,3.51s-9.16-1.31-13.23-3.92ZM809.5,509.25c1.76,2.82,4.11,5.01,7.02,6.57,2.92,1.56,6.04,2.34,9.37,2.34s6.21-.8,9.06-2.39c2.85-1.59,5.12-3.8,6.82-6.62,1.69-2.82,2.54-5.96,2.54-9.42,0-4-.83-7.45-2.49-10.33-1.66-2.88-3.9-5.05-6.72-6.52-2.82-1.46-5.92-2.19-9.31-2.19s-6.53.75-9.42,2.24c-2.89,1.49-5.19,3.68-6.92,6.57-1.73,2.89-2.6,6.3-2.6,10.23,0,3.53.88,6.7,2.65,9.52Z"/>
    <path class="cls-2" d="M875.16,522.89c-4.14-2.27-7.47-5.45-9.98-9.52-2.51-4.07-3.77-8.65-3.77-13.74,0-5.56,1.24-10.38,3.72-14.46,2.48-4.07,5.79-7.18,9.93-9.32,4.14-2.14,8.65-3.21,13.54-3.21s8.97.98,12.88,2.95c3.9,1.97,7.09,4.85,9.57,8.65,2.48,3.8,3.92,8.35,4.33,13.64.14,1.29.14,2.61,0,3.97h-44.89c.27,3.12,1.31,5.94,3.1,8.45,1.8,2.51,4.04,4.46,6.72,5.85,2.68,1.39,5.41,2.12,8.19,2.19,3.32,0,6.46-.76,9.42-2.29,2.95-1.53,5.24-3.72,6.87-6.57l7.33,3.77c-2.31,4.07-5.55,7.26-9.72,9.57-4.17,2.31-8.77,3.46-13.79,3.46s-9.3-1.14-13.44-3.41ZM906.31,496.17c-.34-3.12-1.37-5.87-3.11-8.25-1.73-2.38-3.89-4.21-6.46-5.5-2.58-1.29-5.29-1.93-8.14-1.93s-5.45.65-7.99,1.93c-2.55,1.29-4.67,3.12-6.36,5.5-1.7,2.38-2.72,5.13-3.05,8.25h35.12Z"/>
    <path class="cls-2" d="M924.68,458.91c1.12-.81,2.46-1.22,4.02-1.22s2.8.42,3.92,1.27c1.12.85,1.68,1.92,1.68,3.21s-.56,2.36-1.68,3.21c-1.12.85-2.43,1.27-3.92,1.27s-2.9-.42-4.02-1.27c-1.12-.85-1.68-1.92-1.68-3.21,0-1.36.56-2.44,1.68-3.26ZM923.82,473.67h9.57v51.61h-9.57v-51.61Z"/>
    <path class="cls-2" d="M941.73,473.67h9.57v12.83c1.63-4.21,4.48-7.57,8.55-10.08,4.07-2.51,8.59-3.77,13.54-3.77s9.15,1.09,12.98,3.26c3.83,2.17,6.85,5.31,9.06,9.42,2.21,4.11,3.31,8.91,3.31,14.4v25.55h-9.67l.1-25.55c0-4-.83-7.45-2.49-10.33-1.66-2.88-3.9-5.05-6.72-6.52-2.82-1.46-5.92-2.19-9.31-2.19s-6.53.75-9.42,2.24c-2.89,1.49-5.19,3.68-6.92,6.57-1.73,2.89-2.6,6.3-2.6,10.23v25.55h-9.98v-51.61Z"/>
    <path class="cls-2" d="M1010.45,545.65c-4.55-2.92-6.82-7.06-6.82-12.42,0-3.26,1.02-6.13,3.05-8.6,2.04-2.48,4.51-4.33,7.43-5.55-1.22-.61-2.12-1.34-2.7-2.19-.58-.85-.86-1.95-.86-3.31,0-2.99,1.73-5.6,5.19-7.84-2.58-1.43-4.56-3.39-5.96-5.9-1.39-2.51-2.09-5.23-2.09-8.14,0-5.9,1.97-10.55,5.9-13.95,3.94-3.39,9.37-5.09,16.29-5.09,2.51,0,4.63.14,6.36.41,1.73.27,2.76.44,3.1.51h16.29v7.33h-8.65c1.42.95,2.54,2.41,3.36,4.38.81,1.97,1.22,3.94,1.22,5.9,0,5.7-1.97,10.21-5.9,13.54-3.94,3.33-9.3,4.99-16.08,4.99-2.24,0-4.48-.17-6.72-.51-1.56.75-2.75,1.59-3.56,2.55-.81.95-1.22,1.9-1.22,2.85.07,1.36.71,2.28,1.93,2.75,1.22.48,2.95.71,5.19.71h10.38c6.45,0,11.6,1.24,15.47,3.72,3.87,2.48,5.8,6.26,5.8,11.35,0,5.7-2.33,9.94-6.97,12.73-4.65,2.78-11.39,4.17-20.21,4.17-8.28,0-14.69-1.46-19.24-4.38ZM1016.61,540.56c2.75,1.49,6.94,2.24,12.57,2.24,12.56,0,18.83-3.12,18.83-9.37s-4.62-9.06-13.84-9.06h-8.86c-3.66,0-6.72.8-9.16,2.39s-3.66,3.88-3.66,6.87,1.37,5.43,4.12,6.92ZM1019.76,499.12c2.21,1.83,5.51,2.75,9.93,2.75s7.53-.92,9.77-2.75c2.24-1.83,3.36-4.48,3.36-7.94s-1.14-5.92-3.41-7.79c-2.27-1.87-5.51-2.8-9.72-2.8s-7.63.93-9.87,2.8c-2.24,1.87-3.36,4.56-3.36,8.09,0,3.26,1.1,5.8,3.31,7.63Z"/>
  </g>
  <g>
    <path class="cls-1" d="M476.72,527.46c-12.51-9.09-24.43-19.29-35.43-30.26-41.43-41.45-69.38-93.45-80.9-150.56,30.83-.54,59.71-12.81,81.55-34.67,22.4-22.38,34.74-52.15,34.74-83.94-.02-10.26-7.02-19.01-17.04-21.26-13.87-3.11-28.19-4.69-42.56-4.69h-.65c-38.54.13-70.29,30.72-72.28,69.67-.28,5.29-.41,10.67-.41,15.99,0,15.92,1.21,31.93,3.65,47.59-19.2-1.9-37.48-8.9-53.05-20.37-10.22-7.54-23.09-9.63-35.32-5.75-12.27,3.91-22.01,13.52-26.07,25.71-6.5,19.64-9.81,40.18-9.81,61.09,0,51.8,20.18,100.49,56.81,137.15,36.62,36.62,85.33,56.79,137.13,56.79,16.59,0,33.07-2.12,48.99-6.26,11.9-3.09,20.74-12.57,23.03-24.76,2.31-12.16-2.44-24.22-12.38-31.45ZM354.92,272.3c1.71-33.22,28.73-59.32,61.54-59.43h.6c13.57,0,27.09,1.49,40.2,4.43,5.05,1.12,8.6,5.55,8.6,10.87,0,28.77-11.21,55.82-31.56,76.17-20.26,20.26-47.2,31.45-75.91,31.54-2.57-15.83-3.87-32.04-3.87-48.15,0-5.12.13-10.3.39-15.42ZM478.49,556.9c-1.53,8.14-7.19,14.26-15.14,16.33-15.03,3.91-30.61,5.9-46.27,5.9-48.93,0-94.9-19.05-129.5-53.64-34.58-34.61-53.64-80.6-53.64-129.5,0-19.74,3.11-39.14,9.27-57.7,3-9.05,9.96-15.9,19.07-18.79,2.96-.93,5.94-1.4,8.9-1.4,5.96,0,11.79,1.88,16.76,5.53,17.93,13.22,39.14,21.06,61.37,22.7,11.64,60.16,40.81,114.94,84.35,158.49,11.38,11.38,23.74,21.95,36.7,31.39,6.63,4.82,9.68,12.55,8.12,20.69Z"/>
    <path class="cls-3" d="M287.82,292.5c-6.84,0-13.4-1.56-19.48-4.64-4.08-2.07-7.77-4.76-10.99-7.98-8.14-8.14-12.62-18.96-12.62-30.47,0-4.51.69-8.95,2.05-13.19,2.09-6.48,5.74-12.46,10.57-17.29,8.16-8.15,18.98-12.64,30.48-12.64,9.62,0,18.71,3.09,26.28,8.94,1.53,1.2,2.93,2.44,4.19,3.7,8.14,8.14,12.62,18.96,12.62,30.47,0,5.45-1.01,10.76-2.99,15.77-6.5,16.59-22.25,27.32-40.1,27.32ZM287.82,217.09c-8.62,0-16.72,3.37-22.84,9.48-3.62,3.62-6.36,8.1-7.92,12.96-1.02,3.16-1.53,6.49-1.53,9.88,0,8.63,3.36,16.74,9.46,22.84,2.42,2.42,5.19,4.43,8.24,5.98,4.55,2.3,9.46,3.47,14.59,3.47,13.38,0,25.18-8.04,30.05-20.48,1.49-3.76,2.24-7.73,2.24-11.81,0-8.63-3.36-16.74-9.46-22.84-.96-.96-2.03-1.9-3.19-2.81-5.64-4.35-12.45-6.67-19.65-6.67Z"/>
  </g>
</svg>